PathFileType	4	(X/Y/Z)	 s11c0302.trc
DataRate	CameraRate	NumFrames	NumMarkers	Units	OrigDataRate	OrigDataStartFrame	OrigNumFrames
200	200	6	48	mm	200	751	2000
Frame#	Time	racr			lacr			c7			jug			rlel			rdr			llel			ldr			s2			lic			ric			lasi			rasi			rpsi			lpsi			rgt			lgt			rth1			rth2			rth3			rth4			rlfc			rmfc			rsh1			rsh2			rsh3			rsh4			rlmal			rcal			rtoe			rmt5			lth1			lth2			lth4			lth3			llfc			lmfc			llmal			lcal			lmt5			lsh1			lsh2			lsh3			lsh4			ltoe			SBIKE			LBIKE			RBIKE			
		X1	Y1	Z1	X2	Y2	Z2	X3	Y3	Z3	X4	Y4	Z4	X5	Y5	Z5	X6	Y6	Z6	X7	Y7	Z7	X8	Y8	Z8	X9	Y9	Z9	X10	Y10	Z10	X11	Y11	Z11	X12	Y12	Z12	X13	Y13	Z13	X14	Y14	Z14	X15	Y15	Z15	X16	Y16	Z16	X17	Y17	Z17	X18	Y18	Z18	X19	Y19	Z19	X20	Y20	Z20	X21	Y21	Z21	X22	Y22	Z22	X23	Y23	Z23	X24	Y24	Z24	X25	Y25	Z25	X26	Y26	Z26	X27	Y27	Z27	X28	Y28	Z28	X29	Y29	Z29	X30	Y30	Z30	X31	Y31	Z31	X32	Y32	Z32	X33	Y33	Z33	X34	Y34	Z34	X35	Y35	Z35	X36	Y36	Z36	X37	Y37	Z37	X38	Y38	Z38	X39	Y39	Z39	X40	Y40	Z40	X41	Y41	Z41	X42	Y42	Z42	X43	Y43	Z43	X44	Y44	Z44	X45	Y45	Z45	X46	Y46	Z46	X47	Y47	Z47	X48	Y48	Z48	
751	3.7550	792.826440	1398.281564	-115.052707	723.335142	1389.787626	-460.050449	739.023261	1491.439559	-277.070686	733.949016	1320.699255	-284.928719	678.754953	1164.920618	31.784914	802.684623	928.647161	-40.651220	562.495197	1120.090342	-546.605956	793.983998	936.581296	-450.500882	153.133726	1333.002518	-192.428919	332.532266	1350.494904	-424.519488	400.318189	1269.573725	-37.935221	349.942963	1266.066415	-392.729153	407.768427	1211.872348	-78.717797	224.088385	1385.838375	-134.576646	200.870202	1399.094775	-227.699031	275.458873	1135.096468	-15.245822	255.183069	1235.316672	-436.786656	305.709425	1004.361368	-15.914421	346.894965	926.225162	-29.553627	343.493014	839.880586	-47.127321	381.205127	935.517714	-39.218969	363.385400	736.955279	-67.156738	363.171341	718.604298	-191.548352	281.014361	600.829686	-52.599135	258.116739	517.637901	-71.648192	197.960641	454.634851	-73.401141	281.849299	508.150996	-101.480872	124.698934	337.272815	-86.769676	70.975292	365.600391	-136.931960	252.228054	140.077923	-139.676205	182.476558	167.427752	-71.435450	379.076423	1141.536201	-453.919633	456.831107	1106.540395	-448.247064	480.018403	1133.366002	-436.358476	502.865147	1033.845853	-453.293430	608.053782	940.088325	-427.005640	620.816424	928.412089	-294.897933	332.893790	602.530727	-407.232277	263.914151	592.593166	-375.241079	414.062621	446.586840	-435.197820	533.321623	843.735608	-442.901712	501.818928	763.914354	-431.849806	433.423878	708.066888	-427.631232	528.508326	747.230824	-409.467232	504.670884	416.513841	-365.725260	-203.922073	953.915880	-261.374901	1.395052	83.546643	-460.844727	-15.120906	81.877593	-62.513122	
752	3.7600	793.412155	1394.823826	-117.248412	724.534805	1384.295072	-460.673993	740.552639	1488.133699	-279.022619	733.782528	1317.448595	-285.487632	678.082052	1164.342485	32.279060	802.381255	928.630668	-40.416304	558.943056	1116.505204	-544.645395	792.855396	936.721909	-450.976252	154.154845	1336.916351	-194.181228	332.708862	1350.541467	-426.151109	399.113058	1273.559711	-37.585483	348.624959	1266.811312	-393.576781	406.086428	1214.904660	-78.170730	224.386374	1389.935381	-137.080479	201.219026	1403.787797	-228.925423	275.176207	1138.212085	-14.970839	253.455715	1237.534226	-436.739335	308.791412	1006.605170	-15.427978	351.694422	929.341919	-29.045401	350.367722	842.959839	-46.167258	385.692966	939.414157	-38.944215	370.880986	740.013440	-65.288845	371.447749	721.500837	-189.368955	285.472619	605.380832	-51.266002	260.183688	522.899534	-70.793868	198.397715	461.466111	-72.586458	283.788426	512.849721	-100.694420	121.601215	345.634292	-86.317651	68.083170	374.570168	-136.552334	244.479619	144.942659	-140.152338	175.649651	173.965540	-71.580673	375.482277	1142.678845	-453.948058	452.583068	1106.423884	-448.098244	476.211210	1132.841224	-436.285494	497.558571	1032.832239	-453.337786	603.523419	935.655503	-426.210524	615.586474	924.557251	-294.337746	333.491931	593.038539	-407.443470	263.806274	580.592825	-375.591362	419.803002	440.268158	-435.632847	529.794942	837.942052	-442.723992	499.694118	757.573589	-431.877122	432.243843	700.584539	-427.709209	526.737487	741.105855	-409.195338	511.592001	414.365831	-365.681117	-203.938019	953.915665	-261.473476	1.359250	83.551510	-460.826695	-15.135024	81.916511	-62.499699	
753	3.7650	793.856007	1390.828523	-119.282847	726.328124	1378.508157	-460.260058	742.050388	1484.828774	-280.815870	733.671595	1314.055153	-285.889955	677.327927	1163.465514	33.010990	801.999808	928.614293	-40.122728	555.098503	1112.939765	-542.408568	791.835594	936.667362	-450.879679	154.877707	1341.053031	-195.685498	333.036590	1350.187063	-427.679668	397.734990	1277.084625	-37.118152	347.540928	1266.815425	-394.515640	404.142206	1217.456421	-77.746087	224.856183	1393.691014	-139.658200	202.302847	1407.387394	-230.863660	275.084052	1141.199985	-14.715428	251.729491	1239.346885	-436.661665	312.088137	1008.949740	-14.846414	356.622920	932.376766	-28.476836	356.960984	846.124938	-45.202711	390.293129	943.177135	-38.921973	378.727330	743.016546	-63.450586	379.398888	724.661462	-187.696006	290.205957	609.965896	-49.638000	262.285294	528.081508	-69.951343	198.921975	468.444007	-71.796717	285.690069	517.584272	-100.228526	118.626500	354.394943	-86.115112	65.621171	383.907348	-136.551750	236.951364	150.359543	-140.525769	169.017181	180.983414	-71.800496	371.721186	1143.245736	-453.870215	448.124647	1105.702823	-448.094765	472.222664	1131.693973	-436.248751	496.521846	1031.047242	-451.023127	598.345117	929.686910	-426.483131	609.943221	919.440773	-294.276109	333.711486	582.514164	-407.829296	263.661080	567.613726	-376.010180	425.029326	433.304627	-436.300087	526.044878	830.897596	-442.847045	497.209989	750.065018	-432.125966	430.662760	692.014602	-427.967742	524.418323	734.112121	-409.044500	517.875985	411.770697	-365.421392	-203.949527	953.889124	-261.567613	1.336853	83.510401	-460.803733	-15.165341	81.922872	-62.480744	
754	3.7700	794.053907	1386.507136	-121.058169	727.896774	1372.770875	-460.428585	743.612583	1481.458773	-282.000516	733.540811	1310.389375	-285.975600	676.437154	1162.641865	33.891289	801.527052	928.710338	-39.625823	551.016225	1109.202143	-539.822850	790.612398	936.511219	-450.681051	155.739708	1344.742708	-197.181173	333.523780	1349.414589	-429.190172	396.022044	1280.321982	-37.293358	346.406946	1266.415640	-395.626564	402.276388	1219.679711	-76.782161	225.379520	1397.182367	-142.226784	203.511425	1410.523481	-232.839165	274.985266	1144.027842	-14.424391	250.026214	1241.005950	-436.533055	315.527062	1011.335523	-14.353746	361.531782	935.723351	-28.047569	363.725652	849.306694	-44.296651	394.854783	947.033858	-38.737172	386.587968	746.162285	-61.638205	387.003554	728.130913	-185.992550	294.245736	614.224841	-48.899302	264.557792	533.377620	-68.544502	199.549632	475.414771	-70.997335	287.553261	522.589684	-99.642802	115.980400	363.291366	-86.113289	63.388624	393.554972	-136.773322	229.992142	156.374205	-140.604259	162.716839	188.420691	-72.012916	367.827661	1143.265680	-453.707696	443.393646	1103.995842	-447.693465	467.727661	1130.192438	-437.325272	491.981805	1028.593143	-450.714360	593.704835	923.480936	-425.402835	603.967535	913.208107	-294.485664	333.512133	571.476013	-408.410612	263.030589	553.766106	-376.532854	429.720403	425.694674	-437.137227	521.966627	822.772930	-443.411728	494.442288	741.472477	-432.481661	428.815784	682.297896	-428.330679	521.666907	726.081281	-409.105179	523.369054	408.643585	-365.538134	-203.978336	953.847823	-261.635311	1.296712	83.483742	-460.805367	-15.208685	81.904822	-62.470967	
755	3.7750	794.095557	1381.933363	-122.541955	729.582063	1366.897840	-460.470627	744.972558	1478.477326	-283.459004	733.520749	1306.911155	-285.933483	675.557725	1161.550750	35.080507	801.019167	928.741936	-39.424480	546.754177	1105.310473	-536.885446	789.504839	936.214543	-450.078975	156.247525	1348.243354	-198.263798	334.161479	1348.203436	-430.632378	394.850786	1283.516353	-36.322916	345.471262	1265.497848	-396.785757	400.128135	1221.281605	-75.625784	226.089770	1400.219559	-144.725906	204.897231	1413.132714	-234.981695	275.030267	1146.776332	-14.103066	248.451470	1242.164950	-436.376826	318.984613	1013.762279	-13.794747	366.371213	938.927379	-27.637629	369.963312	852.640732	-42.996535	399.350972	951.015776	-38.505801	394.381676	749.360672	-59.816986	395.433197	730.828525	-183.474237	298.348668	618.569375	-47.842146	266.593434	538.575221	-67.839544	200.190296	482.316349	-70.439121	289.274386	527.458297	-99.070210	113.703093	372.079599	-86.439173	61.507828	403.242697	-137.036357	223.649576	162.579403	-140.563634	156.965942	196.059160	-72.298557	363.995246	1142.460717	-453.505437	438.889106	1101.834690	-447.665811	463.524131	1127.477656	-437.306252	486.432842	1025.429608	-451.051269	588.411196	915.690725	-424.108845	598.025220	905.998945	-296.814369	333.075913	559.485595	-408.889135	262.644041	539.067378	-376.794465	433.719756	417.387020	-437.975516	517.787826	813.556286	-444.209090	491.505213	731.853716	-433.066120	426.768469	671.616856	-428.901275	518.722096	717.158134	-409.065979	528.041115	404.558743	-366.283063	-203.988260	953.797838	-261.678897	1.248040	83.395664	-460.826679	-15.243871	81.867220	-62.491375	
756	3.7800	793.811324	1377.278070	-123.758705	731.312428	1360.812984	-460.396336	746.309122	1475.646897	-284.708322	733.349548	1303.481761	-285.571163	674.676680	1160.483050	36.293046	800.473700	928.721342	-39.151047	541.791908	1100.665398	-532.533365	788.574128	936.336123	-450.347263	157.777550	1351.080148	-200.100493	334.860158	1346.461290	-431.902619	393.193699	1286.013936	-36.069785	344.748887	1263.972292	-397.829232	398.369716	1221.822646	-73.859952	226.858458	1402.858241	-147.028772	206.435608	1415.213876	-237.015052	275.142255	1149.174847	-13.794883	247.052343	1243.033620	-436.220265	322.416682	1016.234202	-13.317915	371.042513	942.288291	-27.222373	376.112848	855.969453	-41.966660	403.801306	954.771309	-38.294163	401.877678	752.480033	-57.992566	403.059288	734.092469	-181.551867	302.264596	622.785273	-46.828943	268.585535	543.786554	-67.208378	200.883877	489.047360	-70.093273	291.106144	532.250148	-98.421794	111.683912	380.820328	-86.759530	60.214460	412.861159	-137.533491	217.686793	169.188144	-140.707924	151.645374	204.057936	-72.543447	360.325314	1140.561795	-453.313028	434.465518	1098.592375	-447.859605	460.026868	1123.485146	-437.063064	473.717399	1021.993363	-455.655335	581.759048	908.169302	-424.576360	591.161392	897.258396	-295.548296	332.390516	546.904557	-409.415850	261.914544	524.187675	-377.004410	437.245670	408.426890	-439.062632	513.511379	803.393336	-445.254032	488.513509	721.226134	-433.098507	424.643545	660.208113	-429.461851	515.571494	707.592968	-409.357910	532.375853	399.511241	-367.294236	-204.004877	953.732855	-261.774852	1.235444	83.188824	-460.901737	-15.265947	81.823691	-62.497632	
